<?xml version="1.0" encoding="UTF-8" standalone="no"?>
<!-- Created with Inkscape (http://www.inkscape.org/) -->

<svg
   width="207.01195mm"
   height="205.35979mm"
   viewBox="0 0 207.01195 205.35979"
   version="1.1"
   id="svg1"
   xml:space="preserve"
   xmlns="http://www.w3.org/2000/svg"
   xmlns:svg="http://www.w3.org/2000/svg"><defs
     id="defs1" /><g
     id="layer1"
     style="display:inline"
     transform="translate(-4.9728735,-45.707495)"><path
       id="path518"
       style="display:inline;fill:#ffffff;fill-opacity:1;stroke:#ffffff;stroke-width:0.1;stroke-dasharray:none;stroke-opacity:1"
       d="M 96.240637,45.84578 71.890702,69.24797 76.698161,51.050114 66.091056,60.720325 58.079659,70.570886 53.706283,60.20201 41.496175,82.93809 l 0.02894,-0.211873 -8.28735,-9.847461 -9.585461,48.505564 9.585461,38.15271 -20.044771,20.27783 -4.8947915,3.26234 -1.9817912,1.865 0.00258,5.2e-4 c -0.00151,0.004 -0.094239,0.30947 -0.1131713,0.36277 l -0.026872,0.0796 c -0.00802,0.024 -0.012206,0.0463 -0.020154,0.0703 -0.00387,0.0111 -0.013364,0.0437 -0.01757,0.0558 l -0.00827,0.0253 c -0.00216,0.007 -0.00302,0.012 -0.00517,0.0186 -0.1421117,0.41064 -0.3246772,0.97415 -0.5911783,2.05001 -0.0056,0.0227 -0.015163,0.0492 -0.020671,0.0718 -0.062961,0.25962 -0.1173857,0.51117 -0.1684652,0.75861 -0.1725081,0.83159 -0.3116089,1.68073 -0.3116089,2.44946 v 2.62878 c -0.016905,0.0672 -0.01743,0.12348 0,0.16795 0.3889375,0.99219 1.2831258,1.04748 1.2831258,1.04748 l 10.1094606,-6.57324 0.04961,-0.032 v 5.1e-4 l -5.17e-4,5.2e-4 -0.164848,0.10904 -9.9937046,6.49779 h -0.00258 c 0,0 0.5937108,0.11553 0.7203695,0.14573 0.3543138,0.082 0.7045484,0.16422 1.2185303,0.26613 0.2904233,0.0576 0.5719241,0.11062 0.8449096,0.15968 0.0068,0.001 0.013394,0.002 0.020154,0.004 0.043601,0.008 0.074529,0.009 0.1178223,0.0165 0.6692796,0.12293 1.0616629,0.16005 1.7828369,0.24598 0.242781,0.0287 0.5444,0.0867 0.765844,0.10593 0.211028,0.0181 0.41371,0.0316 0.610816,0.0419 0.12218,0.006 0.239307,0.0131 0.356567,0.015 0.03683,0.002 0.08041,0.003 0.09663,0.004 0.07959,0.005 0.315699,-0.007 0.552421,-0.0243 0.0061,-3.3e-4 0.01047,-6.9e-4 0.01654,-10e-4 0.479705,-0.0308 0.90825,-0.093 1.18339,-0.23823 1.709208,-0.90223 6.453353,-6.15931 6.453353,-6.15931 l 28.26029,-18.61902 0.528134,-0.3793 0.0036,-0.003 c 0.0092,-0.005 0.01746,-0.01 0.02481,-0.0134 l -0.553972,0.39842 c 0,0 12.315962,-3.96844 15.670878,-4.51083 3.354917,-0.5424 6.731166,-0.31757 8.503874,0.045 1.772708,0.36248 6.836854,1.7964 8.818583,3.70934 3.098271,2.98979 4.341854,5.74383 4.341854,5.74383 l 4.090706,14.44408 0.05426,-0.15348 0.760677,11.43186 -0.818038,-11.28199 -4.09019,-14.44357 -2.286165,16.17163 -18.698084,21.23022 -15.178918,3.88142 18.653125,5.10357 -17.838188,6.26266 24.129794,4.04575 26.995249,-9.08317 -26.830402,9.02839 -9.589078,6.08439 15.792834,6.80785 26.827306,-7.45898 -0.16537,0.34985 0.32556,-0.22531 -5.82135,7.33186 -0.005,0.003 -3.08508,4.58525 c 0,0 -0.897248,0.4656 -0.450102,0.4656 l 0.0031,0.003 c 0.449792,0 15.094172,-7.20989 15.094172,-7.20989 l 10.5823,-9.60923 v -5.2e-4 c 2e-4,-7.9e-4 5.1e-4,-0.002 5.1e-4,-0.002 l 5.2e-4,0.001 c 0,0 -3.78059,16.81715 -3.32021,17.29869 0.46037,0.48154 1.95221,0.21431 2.35438,0 0.40216,-0.21431 16.90181,-22.94485 16.90181,-22.94485 l 0.51314,-40.15311 -0.51056,40.15311 2.05569,-1.9048 0.98599,-0.91157 -3.04168,2.81895 c 0,0 0.51046,15.51519 1.33067,16.4915 0.82021,0.97631 3.18335,1.47373 3.99562,0 0.79453,-1.44153 9.24645,-29.10419 9.61543,-30.31236 l 0.19638,-0.18139 c 0.85418,3.94875 4.41927,20.30916 5.14232,21.68085 0.82285,1.56104 2.44987,1.21444 3.07164,0 0.49387,-0.9605 4.64858,-17.76644 6.36447,-24.75249 2.05447,3.55722 6.24327,10.75704 7.05539,11.74347 1.08479,1.31762 2.90496,1.45212 3.07164,-0.31265 0.16669,-1.76742 -1.02371,-30.51441 -1.02371,-30.51441 l -14.43994,-11.03085 -10e-4,-0.005 14.44097,11.03033 5.2e-4,5.2e-4 5.2e-4,5.2e-4 c 0.0894,0.11208 11.89041,14.91564 12.95528,16.08067 l 0.003,0.003 c 1.06892,1.16946 1.27021,0 1.27021,0 l -7.51479,-28.12335 c 0.95604,0.76835 13.92015,11.18496 15.10502,12.04113 1.23031,0.889 1.23042,-0.41548 1.23042,-0.41548 l -0.82011,-2.04484 -12.90464,-24.06933 c 0.31894,0.17835 18.94216,10.58605 19.2071,9.37152 0.26723,-1.22502 -6.62285,-10.41383 -6.62285,-10.41383 l -2.77244,-5.3759 v -5.2e-4 l -0.001,-0.001 -7.09259,-9.10074 19.70888,8.19433 c 0,0 0.70908,-1.04531 0,-2.99 -0.70909,-1.94468 -22.80998,-28.45562 -22.80998,-28.45562 l 21.92373,6.24148 -15.27969,-15.86725 -7.40317,-5.37125 h 16.06827 c 0,0 -8.17037,-5.74413 -9.8981,-6.17275 -1.72773,-0.42863 -23.09316,-5.318023 -23.09316,-5.318023 h -4.29638 l 26.63816,-7.545793 -12.58631,-3.741373 -19.96829,-2.383834 -23.49107,4.014742 27.94145,-6.694682 15.51791,-8.173145 -15.875,-1.823144 -26.33172,2.841687 -3.33262,0.890902 25.57105,-14.138672 0.96067,-0.870231 h -11.99927 l -42.92865,13.401249 24.94008,-13.115479 11.98532,-11.467 h -1.5689 l -0.28784,0.176217 -4.52737,0.429431 -28.52746,9.919291 14.10767,-15.729273 -28.845783,13.189893 z m 46.434373,21.74596 -43.934267,19.130615 -0.07648,0.02015 z m -31.13453,2.296501 -0.0646,0.03979 0.0284,-0.0186 z m -1.04593,0.674894 -0.006,0.0088 -5.2586,3.397725 z m -26.12864,2.315104 -0.03256,0.04806 -4.067452,3.646289 z M 39.473043,86.783333 v 5.17e-4 l -0.05633,0.02739 z m 24.265185,4.680852 -0.0016,0.0036 -4.908744,4.421435 v -5.16e-4 l 5.17e-4,-5.17e-4 z m 13.165088,1.242301 -1.974039,0.959115 0.0088,-0.0124 z m 4.568197,16.088944 -0.487826,0.50746 0.134359,-0.16433 -0.03307,0.0424 z m 79.671627,4.89117 -0.0109,0.001 h -0.0165 z m -124.22653,2.9285 -0.227377,2.65049 -0.06408,-0.50901 z m 15.620235,0.64648 -5.643067,12.99714 -0.659391,1.41335 z m 0.09043,2.80809 -1.308448,1.94614 -0.0036,-0.009 z m 63.972845,7.06676 18.12292,1.55546 5.2e-4,5.1e-4 z m -17.032041,5.44773 h 31.701941 l -24.61813,0.0238 -7.073476,-0.0186 z m -39.73711,3.85196 18.281055,0.36535 v 5.2e-4 h -5.17e-4 l -0.412378,-0.008 -17.86816,-0.35709 -14.938106,12.69742 -0.857829,0.76533 0.857829,-0.76585 z m 20.781161,0.41548 h 0.0098 l 0.03824,0.01 z m 55.82657,3.4556 18.84071,9.50381 -0.0419,-0.03 0.27492,0.14883 z m -40.489522,0.48111 0.07545,0.0196 -0.01085,0.004 -0.07338,-0.0186 z m -0.02274,0.0134 0.03617,0.032 -0.295589,0.12351 z m 2.39417,0.59531 18.110522,4.6514 -18.101737,-4.64209 z m -38.186817,9.15087 a 4.8762709,4.8762709 0 0 1 0.08217,0.21084 4.8762709,4.8762709 0 0 1 0.07286,0.24391 4.8762709,4.8762709 0 0 0 -0.15503,-0.45475 z m 0.219625,0.67179 a 4.8762709,4.8762709 0 0 1 0.08423,0.4222 4.8762709,4.8762709 0 0 0 -0.08423,-0.4222 z m 0.114722,0.59325 a 4.8762709,4.8762709 0 0 1 0.04031,0.60926 4.8762709,4.8762709 0 0 0 -0.04031,-0.60926 z m 53.240152,4.81624 -26.15395,2.27014 v 0.003 l -24.81554,2.15129 -8.744686,6.28437 c 0.0018,-0.003 0.004,-0.006 0.0067,-0.01 l 8.735384,-6.27766 z m 75.48429,8.47958 v 5.2e-4 l -0.004,0.003 z m -0.001,0.006 -2.651,14.37173 -0.001,0.002 z m -135.235666,2.25102 -0.226343,0.16279 c 9.07e-4,-0.002 0.0022,-0.005 0.0041,-0.008 1.16e-4,-1.7e-4 3.97e-4,-3.4e-4 5.17e-4,-5.1e-4 l 0.206189,-0.14831 0.0021,-10e-4 c 0.0049,-0.002 0.0093,-0.004 0.01344,-0.005 z m -0.264067,0.18707 c 0.0013,-1.6e-4 0.0027,4e-5 0.0041,0 l -0.02274,0.016 c 0.0038,-0.004 0.0088,-0.009 0.01447,-0.015 0.0013,-2.8e-4 0.0028,-8.8e-4 0.0041,-0.001 z m -0.100769,0.0749 -0.342615,0.2465 c 0.0028,-0.004 0.0063,-0.008 0.01034,-0.0124 1.84e-4,-2e-4 3.3e-4,-3.2e-4 5.16e-4,-5.2e-4 l 0.312643,-0.22479 h 5.17e-4 c 0.0068,-0.003 0.01281,-0.006 0.0186,-0.009 z m 90.195522,0.15607 1.90893,3.04529 0.009,0.045 z m -90.578961,0.11989 -0.22686,0.16278 c 8.85e-4,-0.002 0.0028,-0.005 0.0047,-0.008 8.7e-5,-1.3e-4 -8.8e-5,-3.9e-4 0,-5.2e-4 l 0.207223,-0.14883 0.001,-5.2e-4 c 0.0049,-0.002 0.0098,-0.004 0.01395,-0.005 z m -0.265617,0.18707 c 0.0017,-2.5e-4 0.0034,4e-5 0.0052,0 l -0.01654,0.0119 c 0.0034,-0.004 0.007,-0.008 0.01137,-0.0119 z m -0.09922,0.0749 -0.342614,0.24598 c 0.0029,-0.004 0.0065,-0.008 0.01085,-0.0124 l 0.312642,-0.22479 h 5.17e-4 c 0.0066,-0.003 0.01291,-0.006 0.0186,-0.009 z m -0.383956,0.27595 -0.226342,0.16278 c 9.28e-4,-0.003 0.0025,-0.005 0.0047,-0.008 l 0.207739,-0.14934 c 0.005,-0.002 0.0097,-0.004 0.01395,-0.005 z m -0.2651,0.18707 c 0.0017,-2.4e-4 0.0034,4e-5 0.0052,0 l -0.01705,0.0119 c 0.0035,-0.004 0.0075,-0.008 0.01188,-0.0119 z m -0.0987,0.0744 -0.182417,0.13074 c 0.002,-0.003 0.0043,-0.006 0.0072,-0.01 l 0.12454,-0.0894 0.0016,-0.001 c 0.01856,-0.0118 0.03483,-0.022 0.04909,-0.0305 z m -0.216524,0.15555 -0.134359,0.0966 c 7.06e-4,-0.002 0.0018,-0.005 0.0031,-0.007 l 0.122473,-0.0879 c 0.0029,-7e-4 0.0061,-0.001 0.0088,-0.002 z m -0.170015,0.12195 -0.285771,0.20568 c 0.0022,-0.003 0.005,-0.007 0.0083,-0.0109 l 0.262,-0.18862 h 5.17e-4 c 0.0054,-0.002 0.01043,-0.005 0.01499,-0.006 z m -0.326079,0.23461 -0.376204,0.27027 c 0.0032,-0.004 0.0069,-0.008 0.01137,-0.0129 1.17e-4,-1.2e-4 3.98e-4,-3.9e-4 5.17e-4,-5.1e-4 l 0.347782,-0.2496 5.17e-4,-5.2e-4 c 0.0059,-0.003 0.01119,-0.005 0.01602,-0.007 z m -0.421163,0.30231 -0.25063,0.18035 c 0.01187,-0.0102 0.02608,-0.0219 0.04237,-0.0351 2.16e-4,-1.7e-4 3.01e-4,-3.4e-4 5.17e-4,-5.1e-4 l 0.192753,-0.1385 10e-4,-5.1e-4 c 0.0051,-0.002 0.0096,-0.004 0.01395,-0.006 z m -0.364835,0.26252 -0.180868,0.13022 c 0.002,-0.003 0.0046,-0.007 0.0078,-0.0109 1.67e-4,-2e-4 3.47e-4,-3.1e-4 5.17e-4,-5.2e-4 l 0.12609,-0.0904 c 6e-4,-3.8e-4 9.55e-4,-6.6e-4 0.0016,-10e-4 0.01684,-0.0106 0.03186,-0.0196 0.04496,-0.0274 z m -0.214457,0.15399 -0.134359,0.0966 c 7.24e-4,-0.002 0.0018,-0.004 0.0031,-0.007 l 5.16e-4,-5.2e-4 0.120923,-0.0873 h 5.17e-4 c 0.0031,-7.5e-4 0.0065,-0.002 0.0093,-0.002 z m -0.170533,0.12248 -0.285253,0.20515 c 0.0022,-0.003 0.0049,-0.007 0.0083,-0.0109 l 0.261483,-0.1881 h 5.16e-4 c 0.0054,-0.002 0.01039,-0.005 0.01499,-0.006 z m 47.245179,0.71468 11.815301,13.30048 -5.1e-4,0.002 z m -65.850244,0.88574 v 5.1e-4 5.2e-4 5.2e-4 c -2.17e-4,3.1e-4 -0.001,4.8e-4 -0.0016,0.001 -4.47e-4,4.7e-4 -0.01483,0.0118 -0.0155,0.0124 L 13.19815,185.75732 c 0,0 -0.0026,0.002 -0.0062,0.005 v -5.2e-4 -5.2e-4 l 5.16e-4,-5.1e-4 5.17e-4,-5.2e-4 c 0.0057,-0.005 0.03702,-0.03 0.0925,-0.0734 0.0043,-0.003 0.04144,-0.0321 0.04599,-0.0357 z M 9.1648153,189.17553 v 5.2e-4 c -0.022373,0.0198 -0.044804,0.0396 -0.067179,0.0594 v -5.2e-4 c 0.022387,-0.0198 0.044794,-0.0396 0.067179,-0.0594 z m 99.2140947,0.42323 -0.12919,0.79995 v -0.0165 l 0.12713,-0.77515 z m 50.01762,1.01596 0.26975,0.61392 -0.12505,-0.20102 z m 21.46743,0.92036 0.0129,0.0889 -0.007,0.0129 z m -23.7107,22.11493 c 4.2e-4,0.002 6.9e-4,0.004 0.001,0.006 -4.5e-4,-0.001 -0.001,-0.002 -0.002,-0.003 z m -63.254538,2.2934 -13.215214,12.4349 -5.16e-4,-5.2e-4 z M 96.240637,45.84578 71.890702,69.24797 76.698161,51.050114 66.091056,60.720325 58.079659,70.570886 53.706283,60.20201 41.496175,82.93809 l 0.02894,-0.211873 -8.28735,-9.847461 -9.585461,48.505564 9.585461,38.15271 -20.044771,20.27783 -4.8947915,3.26234 -1.9817912,1.865 0.00258,5.2e-4 c -0.00151,0.004 -0.094239,0.30947 -0.1131713,0.36277 l -0.026872,0.0796 c -0.00802,0.024 -0.012206,0.0463 -0.020154,0.0703 -0.00387,0.0111 -0.013364,0.0437 -0.01757,0.0558 l -0.00827,0.0253 c -0.00216,0.007 -0.00302,0.012 -0.00517,0.0186 -0.1421117,0.41064 -0.3246772,0.97415 -0.5911783,2.05001 -0.0056,0.0227 -0.015163,0.0492 -0.020671,0.0718 -0.062961,0.25962 -0.1173857,0.51117 -0.1684652,0.75861 -0.1725081,0.83159 -0.3116089,1.68073 -0.3116089,2.44946 v 2.62878 c -0.016905,0.0672 -0.01743,0.12348 0,0.16795 0.3889375,0.99219 1.2831258,1.04748 1.2831258,1.04748 l 10.1094606,-6.57324 0.04961,-0.032 v 5.1e-4 l -5.17e-4,5.2e-4 -0.164848,0.10904 -9.9937046,6.49779 h -0.00258 c 0,0 0.5937108,0.11553 0.7203695,0.14573 0.3543138,0.082 0.7045484,0.16422 1.2185303,0.26613 0.2904233,0.0576 0.5719241,0.11062 0.8449096,0.15968 0.0068,0.001 0.013394,0.002 0.020154,0.004 0.043601,0.008 0.074529,0.009 0.1178223,0.0165 0.6692796,0.12293 1.0616629,0.16005 1.7828369,0.24598 0.242781,0.0287 0.5444,0.0867 0.765844,0.10593 0.211028,0.0181 0.41371,0.0316 0.610816,0.0419 0.12218,0.006 0.239307,0.0131 0.356567,0.015 0.03683,0.002 0.08041,0.003 0.09663,0.004 0.07959,0.005 0.315699,-0.007 0.552421,-0.0243 0.0061,-3.3e-4 0.01047,-6.9e-4 0.01654,-10e-4 0.479705,-0.0308 0.90825,-0.093 1.18339,-0.23823 1.709208,-0.90223 6.453353,-6.15931 6.453353,-6.15931 l 28.26029,-18.61902 0.528134,-0.3793 0.0036,-0.003 c 0.0092,-0.005 0.01746,-0.01 0.02481,-0.0134 l -0.553972,0.39842 c 0,0 12.315962,-3.96844 15.670878,-4.51083 3.354917,-0.5424 6.731166,-0.31757 8.503874,0.045 1.772708,0.36248 6.836854,1.7964 8.818583,3.70934 3.098271,2.98979 4.341854,5.74383 4.341854,5.74383 l 4.090706,14.44408 0.05426,-0.15348 0.760677,11.43186 -0.818038,-11.28199 -4.09019,-14.44357 -2.286165,16.17163 -18.698084,21.23022 -15.178918,3.88142 18.653125,5.10357 -17.838188,6.26266 24.129794,4.04575 26.995249,-9.08317 -26.830402,9.02839 -9.589078,6.08439 15.792834,6.80785 26.827306,-7.45898 -0.16537,0.34985 0.32556,-0.22531 -5.82135,7.33186 -0.005,0.003 -3.08508,4.58525 c 0,0 -0.897248,0.4656 -0.450102,0.4656 l 0.0031,0.003 c 0.449792,0 15.094172,-7.20989 15.094172,-7.20989 l 10.5823,-9.60923 v -5.2e-4 c 2e-4,-7.9e-4 5.1e-4,-0.002 5.1e-4,-0.002 l 5.2e-4,0.001 c 0,0 -3.78059,16.81715 -3.32021,17.29869 0.46037,0.48154 1.95221,0.21431 2.35438,0 0.40216,-0.21431 16.90181,-22.94485 16.90181,-22.94485 l 0.51314,-40.15311 -0.51056,40.15311 2.05569,-1.9048 0.98599,-0.91157 -3.04168,2.81895 c 0,0 0.51046,15.51519 1.33067,16.4915 0.82021,0.97631 3.18335,1.47373 3.99562,0 0.79453,-1.44153 9.24645,-29.10419 9.61543,-30.31236 l 0.19638,-0.18139 c 0.85418,3.94875 4.41927,20.30916 5.14232,21.68085 0.82285,1.56104 2.44987,1.21444 3.07164,0 0.49387,-0.9605 4.64858,-17.76644 6.36447,-24.75249 2.05447,3.55722 6.24327,10.75704 7.05539,11.74347 1.08479,1.31762 2.90496,1.45212 3.07164,-0.31265 0.16669,-1.76742 -1.02371,-30.51441 -1.02371,-30.51441 l -14.43994,-11.03085 -10e-4,-0.005 14.44097,11.03033 5.2e-4,5.2e-4 5.2e-4,5.2e-4 c 0.0894,0.11208 11.89041,14.91564 12.95528,16.08067 l 0.003,0.003 c 1.06892,1.16946 1.27021,0 1.27021,0 l -7.51479,-28.12335 c 0.95604,0.76835 13.92015,11.18496 15.10502,12.04113 1.23031,0.889 1.23042,-0.41548 1.23042,-0.41548 l -0.82011,-2.04484 -12.90464,-24.06933 c 0.31894,0.17835 18.94216,10.58605 19.2071,9.37152 0.26723,-1.22502 -6.62285,-10.41383 -6.62285,-10.41383 l -2.77244,-5.3759 v -5.2e-4 l -0.001,-0.001 -7.09259,-9.10074 19.70888,8.19433 c 0,0 0.70908,-1.04531 0,-2.99 -0.70909,-1.94468 -22.80998,-28.45562 -22.80998,-28.45562 l 21.92373,6.24148 -15.27969,-15.86725 -7.40317,-5.37125 h 16.06827 c 0,0 -8.17037,-5.74413 -9.8981,-6.17275 -1.72773,-0.42863 -23.09316,-5.318023 -23.09316,-5.318023 h -4.29638 l 26.63816,-7.545793 -12.58631,-3.741373 -19.96829,-2.383834 -23.49107,4.014742 27.94145,-6.694682 15.51791,-8.173145 -15.875,-1.823144 -26.33172,2.841687 -3.33262,0.890902 25.57105,-14.138672 0.96067,-0.870231 h -11.99927 l -42.92865,13.401249 24.94008,-13.115479 11.98532,-11.467 h -1.5689 l -0.28784,0.176217 -4.52737,0.429431 -28.52746,9.919291 14.10767,-15.729273 -28.845783,13.189893 z m 46.434373,21.74596 -43.934267,19.130615 -0.07648,0.02015 z m -31.13453,2.296501 -0.0646,0.03979 0.0284,-0.0186 z m -1.04593,0.674894 -0.006,0.0088 -5.2586,3.397725 z m -26.12864,2.315104 -0.03256,0.04806 -4.067452,3.646289 z M 39.473043,86.783333 v 5.17e-4 l -0.05633,0.02739 z m 24.265185,4.680852 -0.0016,0.0036 -4.908744,4.421435 v -5.16e-4 l 5.17e-4,-5.17e-4 z m 13.165088,1.242301 -1.974039,0.959115 0.0088,-0.0124 z m 4.568197,16.088944 -0.487826,0.50746 0.134359,-0.16433 -0.03307,0.0424 z m 79.671627,4.89117 -0.0109,0.001 h -0.0165 z m -124.22653,2.9285 -0.227377,2.65049 -0.06408,-0.50901 z m 15.620235,0.64648 -5.643067,12.99714 -0.659391,1.41335 z m 0.09043,2.80809 -1.308448,1.94614 -0.0036,-0.009 z m 63.972845,7.06676 18.12292,1.55546 5.2e-4,5.1e-4 z m -17.032041,5.44773 h 31.701941 l -24.61813,0.0238 -7.073476,-0.0186 z m -39.73711,3.85196 18.281055,0.36535 v 5.2e-4 h -5.17e-4 l -0.412378,-0.008 -17.86816,-0.35709 -14.938106,12.69742 -0.857829,0.76533 0.857829,-0.76585 z m 20.781161,0.41548 h 0.0098 l 0.03824,0.01 z m 55.82657,3.4556 18.84071,9.50381 -0.0419,-0.03 0.27492,0.14883 z m -40.489522,0.48111 0.07545,0.0196 -0.01085,0.004 -0.07338,-0.0186 z m -0.02274,0.0134 0.03617,0.032 -0.295589,0.12351 z m 2.39417,0.59531 18.110522,4.6514 -18.101737,-4.64209 z m -38.186817,9.15087 a 4.8762709,4.8762709 0 0 1 0.08217,0.21084 4.8762709,4.8762709 0 0 1 0.07286,0.24391 4.8762709,4.8762709 0 0 0 -0.15503,-0.45475 z m 0.219625,0.67179 a 4.8762709,4.8762709 0 0 1 0.08423,0.4222 4.8762709,4.8762709 0 0 0 -0.08423,-0.4222 z m 0.114722,0.59325 a 4.8762709,4.8762709 0 0 1 0.04031,0.60926 4.8762709,4.8762709 0 0 0 -0.04031,-0.60926 z m 53.240152,4.81624 -26.15395,2.27014 v 0.003 l -24.81554,2.15129 -8.744686,6.28437 c 0.0018,-0.003 0.004,-0.006 0.0067,-0.01 l 8.735384,-6.27766 z m 75.48429,8.47958 v 5.2e-4 l -0.004,0.003 z m -0.001,0.006 -2.651,14.37173 -0.001,0.002 z m -135.235666,2.25102 -0.226343,0.16279 c 9.07e-4,-0.002 0.0022,-0.005 0.0041,-0.008 1.16e-4,-1.7e-4 3.97e-4,-3.4e-4 5.17e-4,-5.1e-4 l 0.206189,-0.14831 0.0021,-10e-4 c 0.0049,-0.002 0.0093,-0.004 0.01344,-0.005 z m -0.264067,0.18707 c 0.0013,-1.6e-4 0.0027,4e-5 0.0041,0 l -0.02274,0.016 c 0.0038,-0.004 0.0088,-0.009 0.01447,-0.015 0.0013,-2.8e-4 0.0028,-8.8e-4 0.0041,-0.001 z m -0.100769,0.0749 -0.342615,0.2465 c 0.0028,-0.004 0.0063,-0.008 0.01034,-0.0124 1.84e-4,-2e-4 3.3e-4,-3.2e-4 5.16e-4,-5.2e-4 l 0.312643,-0.22479 h 5.17e-4 c 0.0068,-0.003 0.01281,-0.006 0.0186,-0.009 z m 90.195522,0.15607 1.90893,3.04529 0.009,0.045 z m -90.578961,0.11989 -0.22686,0.16278 c 8.85e-4,-0.002 0.0028,-0.005 0.0047,-0.008 8.7e-5,-1.3e-4 -8.8e-5,-3.9e-4 0,-5.2e-4 l 0.207223,-0.14883 0.001,-5.2e-4 c 0.0049,-0.002 0.0098,-0.004 0.01395,-0.005 z m -0.265617,0.18707 c 0.0017,-2.5e-4 0.0034,4e-5 0.0052,0 l -0.01654,0.0119 c 0.0034,-0.004 0.007,-0.008 0.01137,-0.0119 z m -0.09922,0.0749 -0.342614,0.24598 c 0.0029,-0.004 0.0065,-0.008 0.01085,-0.0124 l 0.312642,-0.22479 h 5.17e-4 c 0.0066,-0.003 0.01291,-0.006 0.0186,-0.009 z m -0.383956,0.27595 -0.226342,0.16278 c 9.28e-4,-0.003 0.0025,-0.005 0.0047,-0.008 l 0.207739,-0.14934 c 0.005,-0.002 0.0097,-0.004 0.01395,-0.005 z m -0.2651,0.18707 c 0.0017,-2.4e-4 0.0034,4e-5 0.0052,0 l -0.01705,0.0119 c 0.0035,-0.004 0.0075,-0.008 0.01188,-0.0119 z m -0.0987,0.0744 -0.182417,0.13074 c 0.002,-0.003 0.0043,-0.006 0.0072,-0.01 l 0.12454,-0.0894 0.0016,-0.001 c 0.01856,-0.0118 0.03483,-0.022 0.04909,-0.0305 z m -0.216524,0.15555 -0.134359,0.0966 c 7.06e-4,-0.002 0.0018,-0.005 0.0031,-0.007 l 0.122473,-0.0879 c 0.0029,-7e-4 0.0061,-0.001 0.0088,-0.002 z m -0.170015,0.12195 -0.285771,0.20568 c 0.0022,-0.003 0.005,-0.007 0.0083,-0.0109 l 0.262,-0.18862 h 5.17e-4 c 0.0054,-0.002 0.01043,-0.005 0.01499,-0.006 z m -0.326079,0.23461 -0.376204,0.27027 c 0.0032,-0.004 0.0069,-0.008 0.01137,-0.0129 1.17e-4,-1.2e-4 3.98e-4,-3.9e-4 5.17e-4,-5.1e-4 l 0.347782,-0.2496 5.17e-4,-5.2e-4 c 0.0059,-0.003 0.01119,-0.005 0.01602,-0.007 z m -0.421163,0.30231 -0.25063,0.18035 c 0.01187,-0.0102 0.02608,-0.0219 0.04237,-0.0351 2.16e-4,-1.7e-4 3.01e-4,-3.4e-4 5.17e-4,-5.1e-4 l 0.192753,-0.1385 10e-4,-5.1e-4 c 0.0051,-0.002 0.0096,-0.004 0.01395,-0.006 z m -0.364835,0.26252 -0.180868,0.13022 c 0.002,-0.003 0.0046,-0.007 0.0078,-0.0109 1.67e-4,-2e-4 3.47e-4,-3.1e-4 5.17e-4,-5.2e-4 l 0.12609,-0.0904 c 6e-4,-3.8e-4 9.55e-4,-6.6e-4 0.0016,-10e-4 0.01684,-0.0106 0.03186,-0.0196 0.04496,-0.0274 z m -0.214457,0.15399 -0.134359,0.0966 c 7.24e-4,-0.002 0.0018,-0.004 0.0031,-0.007 l 5.16e-4,-5.2e-4 0.120923,-0.0873 h 5.17e-4 c 0.0031,-7.5e-4 0.0065,-0.002 0.0093,-0.002 z m -0.170533,0.12248 -0.285253,0.20515 c 0.0022,-0.003 0.0049,-0.007 0.0083,-0.0109 l 0.261483,-0.1881 h 5.16e-4 c 0.0054,-0.002 0.01039,-0.005 0.01499,-0.006 z m 47.245179,0.71468 11.815301,13.30048 -5.1e-4,0.002 z m -65.850244,0.88574 v 5.1e-4 5.2e-4 5.2e-4 c -2.17e-4,3.1e-4 -0.001,4.8e-4 -0.0016,0.001 -4.47e-4,4.7e-4 -0.01483,0.0118 -0.0155,0.0124 L 13.19815,185.75732 c 0,0 -0.0026,0.002 -0.0062,0.005 v -5.2e-4 -5.2e-4 l 5.16e-4,-5.1e-4 5.17e-4,-5.2e-4 c 0.0057,-0.005 0.03702,-0.03 0.0925,-0.0734 0.0043,-0.003 0.04144,-0.0321 0.04599,-0.0357 z M 9.1648153,189.17553 v 5.2e-4 c -0.022373,0.0198 -0.044804,0.0396 -0.067179,0.0594 v -5.2e-4 c 0.022387,-0.0198 0.044794,-0.0396 0.067179,-0.0594 z m 99.2140947,0.42323 -0.12919,0.79995 v -0.0165 l 0.12713,-0.77515 z m 50.01762,1.01596 0.26975,0.61392 -0.12505,-0.20102 z m 21.46743,0.92036 0.0129,0.0889 -0.007,0.0129 z m -23.7107,22.11493 c 4.2e-4,0.002 6.9e-4,0.004 0.001,0.006 -4.5e-4,-0.001 -0.001,-0.002 -0.002,-0.003 z m -63.254538,2.2934 -13.215214,12.4349 -5.16e-4,-5.2e-4 z" /></g></svg>
