<svg xmlns:xlink="http://www.w3.org/1999/xlink" xmlns="http://www.w3.org/2000/svg" xml:space="preserve" style="enable-background:new 0 0 120 120;editableCssRules=.*;" viewBox="0 0 120 120" y="0px" x="0px" id="Layer_1" version="1.1">&#xa;<style type="text/css">&#xa;	.st0{fill:#001135;}&#xa;	.st1{fill:none;stroke:#FFFFFF;stroke-width:4;stroke-linecap:round;stroke-linejoin:round;stroke-miterlimit:10;}&#xa;	.st2{fill:#FFFFFF;}&#xa;	.st3{fill:none;stroke:#FFFFFF;stroke-width:4;stroke-miterlimit:10;}&#xa;	.st4{fill:none;stroke:#FFFFFF;stroke-width:4;stroke-linecap:round;stroke-linejoin:round;}&#xa;	.st5{fill:#FFFFFF;stroke:#FFFFFF;stroke-width:4;stroke-linecap:round;stroke-linejoin:round;stroke-miterlimit:10;}&#xa;	.st6{fill:none;stroke:#FFFFFF;stroke-width:4.2333;stroke-linecap:round;stroke-linejoin:round;stroke-miterlimit:10;}&#xa;	.st7{fill:none;stroke:#FFFFFF;stroke-width:4;stroke-linecap:round;stroke-miterlimit:10;}&#xa;	.st8{fill:#FFFFFF;stroke:#FFFFFF;stroke-width:4;stroke-miterlimit:10;}&#xa;	.st9{fill:#FFFFFF;stroke:#FFFFFF;stroke-width:4;}&#xa;	.st10{fill:none;stroke:#FFFFFF;stroke-width:4;}&#xa;	.st11{fill:#262626;stroke:#FFFFFF;stroke-width:4.2333;}&#xa;	.st12{fill-rule:evenodd;clip-rule:evenodd;fill:none;stroke:#FFFFFF;stroke-width:4;stroke-miterlimit:10;}&#xa;	.st13{fill-rule:evenodd;clip-rule:evenodd;fill:#FFFFFF;stroke:#FFFFFF;stroke-width:4;}&#xa;	.st14{fill:none;stroke:#FFFFFF;stroke-width:4.2333;stroke-linecap:round;stroke-linejoin:round;}&#xa;	.st15{fill:none;stroke:#FFFFFF;stroke-width:4;stroke-linecap:round;}&#xa;	.st16{fill:#FFFFFF;stroke:#FFFFFF;stroke-miterlimit:10;}&#xa;	.st17{fill:#262626;stroke:#FFFFFF;stroke-width:4;stroke-miterlimit:10;}&#xa;	.st18{fill:#FFFFFF;stroke:#FFFFFF;stroke-width:4;stroke-linecap:round;stroke-linejoin:round;}&#xa;</style>&#xa;<rect height="120" width="120" class="st0"/>&#xa;<g>&#xa;	<g>&#xa;		<path d="M71.7,19.7V48h28" class="st1"/>&#xa;		<path d="M91.2,38.5l7.5,7.6c1.3,1.3,1.3,3.1,0,4.3L91.1,58" class="st1"/>&#xa;	</g>&#xa;	<g>&#xa;		<path d="M20,47.8h28.4v-28" class="st1"/>&#xa;		<path d="M38.8,28.3l7.6-7.5c1.3-1.3,3.1-1.3,4.3,0l7.7,7.6" class="st1"/>&#xa;	</g>&#xa;	<g>&#xa;		<path d="M48,100.3V72H20" class="st1"/>&#xa;		<path d="M28.5,81.5L21,73.9c-1.3-1.3-1.3-3.1,0-4.3l7.6-7.7" class="st1"/>&#xa;	</g>&#xa;	<g>&#xa;		<path d="M100,71.9H71.6v28" class="st1"/>&#xa;		<path d="M81.2,91.4l-7.6,7.5c-1.3,1.3-3.1,1.3-4.3,0l-7.7-7.6" class="st1"/>&#xa;	</g>&#xa;</g>&#xa;</svg>