<svg xmlns="http://www.w3.org/2000/svg" viewBox="-8 -8 136 136" width="120" height="120" preserveAspectRatio="xMidYMid meet" id="Layer_1" version="1.1">
  <style type="text/css">
    .st0 { fill: #001135; }
    .st1 { fill: none; stroke: #FFFFFF; stroke-width: 4; stroke-linecap: round; stroke-linejoin: round; stroke-miterlimit: 10; }
  </style>
  <rect width="120" height="120" class="st0"/>
  <g>
    <g>
      <path d="M71.7,19.7V48h28" class="st1"/>
      <path d="M91.2,38.5l7.5,7.6c1.3,1.3,1.3,3.1,0,4.3L91.1,58" class="st1"/>
    </g>
    <g>
      <path d="M20,47.8h28.4v-28" class="st1"/>
      <path d="M38.8,28.3l7.6-7.5c1.3-1.3,3.1-1.3,4.3,0l7.7,7.6" class="st1"/>
    </g>
    <g>
      <path d="M48,100.3V72H20" class="st1"/>
      <path d="M28.5,81.5L21,73.9c-1.3-1.3-1.3-3.1,0-4.3l7.6-7.7" class="st1"/>
    </g>
    <g>
      <path d="M100,71.9H71.6v28" class="st1"/>
      <path d="M81.2,91.4l-7.6,7.5c-1.3,1.3-3.1,1.3-4.3,0l-7.7-7.6" class="st1"/>
    </g>
  </g>
</svg>
